<svg xmlns="http://www.w3.org/2000/svg" xmlns:xlink="http://www.w3.org/1999/xlink" viewBox="0 0 60 60"><circle cx="30" cy="30" r="28" fill="#ddd" stroke="#fff" stroke-width="4" stroke-miterlimit="10"/><defs><circle id="a" cx="31" cy="24" r="28"/></defs><defs><circle id="b" cx="29.96" cy="30" r="28"/></defs><clipPath id="c"><use xlink:href="#b" overflow="visible"/></clipPath><path d="M23 32.39s.67 2.14.67 3.74 0 5.62-3.21 6.42c-3.21.8-11.23 3.21-11.23 3.21S10.03 57 29.29 57s21.67-10.43 21.67-10.43l-9.63-3.21s-4.81-.8-4.81-7.22c0-.8.8-4.01.8-4.01L23 32.39z" clip-path="url(#c)" fill="#fff"/><radialGradient id="d" cx="30.078" cy="25" r="17.001" gradientTransform="matrix(.00347 -1 .8442 .00293 8.868 55.004)" gradientUnits="userSpaceOnUse"><stop offset="0"/><stop offset=".096" stop-color="#060606" stop-opacity=".904"/><stop offset=".22" stop-color="#161616" stop-opacity=".78"/><stop offset=".36" stop-color="#303030" stop-opacity=".64"/><stop offset=".511" stop-color="#565656" stop-opacity=".489"/><stop offset=".672" stop-color="#868686" stop-opacity=".328"/><stop offset=".837" stop-color="#bfbfbf" stop-opacity=".163"/><stop offset="1" stop-color="#fff" stop-opacity="0"/></radialGradient><path d="M29.91 8c-1.21 0-10.93 0-13.36 9.71-2.43 10.93 4.86 19.43 4.86 19.43S25.05 42 29.91 42s8.5-4.86 8.5-4.86 7.29-9.71 4.86-20.64C40.84 8 31.13 8 29.91 8z" fill="url(#d)"/><path d="M29.96 11.82c-.94 0-8.47 0-10.35 7.53-1.88 8.47 3.76 15.06 3.76 15.06s2.82 3.76 6.59 3.76 6.59-3.76 6.59-3.76 5.65-7.53 3.76-16c-1.88-6.59-9.41-6.59-10.35-6.59z" fill="#fff"/></svg>